<?xml version="1.0" encoding="UTF-8" standalone="no"?>
<svg xmlns="http://www.w3.org/2000/svg" width="165" height="220">
<path fill="#11274a" d="m 144.35937,0.9996588 c -12.69684,0 -19.4082,5.1690099 -19.4082,14.9375002 0,9.77577 6.71136,14.939453 19.4082,14.939453 5.09549,0 10.18478,-1.38771 13.62305,-3.71875 l 0.26953,-0.185547 -5.0957,-5.791016 -0.21094,0.152344 c -1.90854,1.36584 -5.52259,2.083985 -8.09766,2.083985 -7.37552,0 -10.66406,-2.308489 -10.66406,-7.480469 0,-5.16834 3.28854,-7.47461 10.66406,-7.47461 2.57507,0 6.18912,0.714505 8.09766,2.083985 l 0.21094,0.152344 5.0957,-5.7949224 -0.26953,-0.1855468 c -3.43463,-2.33103 -8.52756,-3.71875 -13.62305,-3.71875 z m -100.033198,1.3359374 0,27.4941408 8.158203,0 0,-8.380859 4.353515,0 c 2.855515,0 4.381549,-0.28748 7.058594,2.375 1.540667,1.537019 6.125,6.005859 6.125,6.005859 l 10.373047,0 -9.359375,-8.861328 c 3.853488,0 8.179687,-4.467901 8.179687,-9.144531 0,-4.8587505 -3.809679,-9.4882818 -10.318359,-9.4882818 l -24.570312,0 z m 51.935547,0.00195 c -5.3937,0.00501 -10.697266,0.015625 -10.697266,0.015625 l 0,27.4296878 c 0,0 20.870737,0.0364 21.970697,0 4.20679,0 13.05665,-3.671943 13.05665,-14.289063 0,-10.6134898 -8.85028,-13.1406248 -13.08985,-13.1406248 -0.3624,-0.02005 -5.84653,-0.020638 -11.240231,-0.015625 z M 1,2.36294 l 0,27.433594 8.1582032,0 0,-16.728516 c 2.0906448,0 12.3878378,7.171286 18.0078118,16.728516 l 8.69336,0 0,-27.433594 -8.103516,0 0,14.197266 C 26.462864,14.105336 14.761001,2.36294 3.0839843,2.36294 L 1,2.36294 Z m 51.484375,6.980469 15.191406,0 c 1.598943,0 2.896484,1.084643 2.896484,2.683593 0,1.60258 -1.297541,2.691407 -2.896484,2.691407 l -15.191406,0 0,-5.375 z m 46.945316,0.277343 c 2.907869,-0.0045 5.907129,-0.0045 6.269529,0.01367 3.70052,0 6.08593,2.526725 6.08593,5.859375 0,3.33265 -1.76581,6.640625 -6.05273,6.640625 -1.09995,0.0364 -12.027342,0 -12.027342,0 l 0,-12.5 c 0,0 2.816737,-0.0091 5.724613,-0.01367 z"/>
<path fill="#00b3e2" d="m 148.96555,119.27914 0,22.1958 c 0,38.83356 -31.59642,70.42636 -70.426325,70.42636 -38.83719,0 -70.4299672,-31.5928 -70.4299672,-70.42636 l 0,-91.1798 140.8562922,0 0,12.8134 0.004,0.14933 c 0,6.1918 4.82233,7.12057 7.09508,7.12422 l 0,-27.18567 -155.0537352,0 0,98.27852 C 1.0108948,184.2203 35.790631,219 78.539585,219 121.2849,219 156.06463,184.2203 156.06463,141.47494 l 0,-29.32002 c -2.2764,0 -7.09872,0.92149 -7.09872,7.12422"/>
<path fill="#11274a" d="m 42.579041,85.42162 -0.02914,-0.15662 -2.127067,-5.18654 7.506654,-2.2072 c 0.331443,-0.12019 0.495344,-0.41157 0.495344,-0.70659 0,-0.29138 -0.163901,-0.58641 -0.495344,-0.7066 l -7.506654,-2.2072 2.127067,-5.17926 0.02914,-0.15662 c 0.0036,-0.0437 0.0073,-0.0838 0.0073,-0.12747 -0.0036,-0.0801 -0.01821,-0.15662 -0.04735,-0.22946 -0.0036,-0.0109 -0.01457,-0.0182 -0.01821,-0.0291 -0.07285,-0.14933 -0.193038,-0.27317 -0.34237,-0.34602 -0.01093,-0.004 -0.02185,-0.0109 -0.03278,-0.0146 -0.0692,-0.0291 -0.149332,-0.0437 -0.225819,-0.051 -0.04371,0 -0.08741,0.004 -0.131121,0.0109 l -0.156616,0.0255 -5.179263,2.12706 -2.210839,-7.50665 c -0.120194,-0.3278 -0.411573,-0.49534 -0.706594,-0.49534 -0.295022,0 -0.586401,0.16754 -0.702952,0.49534 l -2.207197,7.50665 -5.182906,-2.12706 -0.156616,-0.0255 c -0.04371,-0.007 -0.08741,-0.0109 -0.13112,-0.007 -0.07649,0.004 -0.156617,0.0182 -0.225819,0.0473 -0.01093,0.004 -0.02185,0.0109 -0.03278,0.0146 -0.149332,0.0728 -0.269526,0.19304 -0.342371,0.34602 -0.0036,0.007 -0.01093,0.0182 -0.01457,0.0291 -0.03278,0.0728 -0.04371,0.14933 -0.05099,0.22946 0,0.0437 0.0036,0.0838 0.0073,0.12747 l 0.0255,0.15662 2.134352,5.17926 -7.513938,2.2072 c -0.327802,0.12019 -0.495345,0.40793 -0.495345,0.69931 0,0.29502 0.163901,0.59369 0.495345,0.71388 l 7.513938,2.2072 -2.134352,5.18654 -0.0255,0.15662 c -0.0036,0.0437 -0.0073,0.0838 -0.0073,0.12748 0.0073,0.0801 0.01821,0.15661 0.05099,0.22946 0.0036,0.0109 0.0073,0.0182 0.01457,0.0291 0.07285,0.14933 0.193039,0.27317 0.342371,0.34601 0.01457,0.004 0.02185,0.0109 0.03278,0.0146 0.0692,0.0291 0.149332,0.0437 0.229461,0.051 0.04006,0 0.08013,-0.004 0.127478,-0.0109 l 0.156616,-0.0255 5.182906,-2.13435 2.203554,7.51029 c 0.120194,0.33145 0.411573,0.4917 0.706595,0.49535 0.295021,-0.004 0.5864,-0.1639 0.706594,-0.49535 l 2.207196,-7.51029 5.182906,2.13435 0.156616,0.0291 c 0.04371,0.004 0.08741,0.007 0.127479,0.007 0.08013,-0.007 0.160258,-0.0218 0.229461,-0.051 0.01093,-0.004 0.02185,-0.0109 0.02914,-0.0146 0.152974,-0.0728 0.27681,-0.19668 0.346012,-0.34601 0.0036,-0.0109 0.01457,-0.0182 0.01821,-0.0291 0.02914,-0.0692 0.04371,-0.14933 0.04735,-0.22946 0,-0.0437 -0.0036,-0.0838 -0.0073,-0.12748"/>
<path fill="#11274a" d="m 115.81462,158.9901 c -0.93241,4.19586 -5.06635,6.97124 -9.7357,9.9724 l -0.0109,0.01 -0.0109,-0.01 c -1.15823,-0.6483 -1.5953,-1.59161 -1.93038,-2.50945 -0.0874,-0.25132 -0.13477,-0.52813 -0.13477,-0.83772 0,-1.31849 0.81951,-3.12504 2.30918,-5.02265 l 0.0109,-0.0146 2.08336,1.83568 c 0.76851,-1.04896 1.15095,-2.43301 1.15095,-3.93726 0,-3.97732 -2.65155,-8.79964 -7.68513,-10.51514 l -0.0401,-0.0146 0.0291,-0.0255 c 4.83325,-3.65317 9.25857,-9.63008 11.42934,-14.00441 l 0.0291,-0.0656 0.007,0.0728 c 0.54634,5.46336 2.96114,13.43622 2.96114,20.36376 0,1.63901 -0.1384,3.21974 -0.46256,4.70213 M 61.373711,178.8328 c -0.0073,-0.025 -0.01093,-0.058 -0.02185,-0.087 -0.138405,-0.6811 -0.346012,-1.3731 -0.626465,-2.0469 -1.467822,-3.5476 -4.447173,-5.9405 -8.238744,-6.6471 l -0.01457,0 -0.0036,-0.015 c -0.200323,-0.5208 -0.418857,-1.6499 -0.418857,-2.99387 -0.0036,-2.96478 1.085387,-6.97853 5.911353,-7.7689 l 0.01821,-0.004 0.0036,0.004 c 4.705772,16.16057 13.78223,27.68827 20.913734,27.68827 l 0.04006,0 13.377943,0 0.03278,0 c 1.187369,0 2.822735,-0.2477 3.886268,-1.6682 0.914202,-1.2128 1.285711,-2.7753 1.285711,-4.3634 0,-1.9121 -0.542694,-3.8789 -1.340344,-5.354 -1.001616,-1.8576 -3.529329,-4.8952 -9.054605,-5.4306 l -0.0073,0 -0.0073,-0.011 c -2.411162,-3.88992 -3.642239,-9.19302 -3.642239,-14.8822 0,-12.28891 5.754737,-26.3698 17.854254,-31.88051 0.16755,-0.0765 0.25132,-0.22582 0.25132,-0.37879 0,-0.17119 -0.11291,-0.34966 -0.32052,-0.41886 -0.82315,-0.26224 -1.75192,-0.40065 -2.742609,-0.40065 -5.040858,0 -11.91012,3.59489 -17.504598,12.86439 -2.323749,3.84985 -4.520018,10.85023 -4.520018,18.86679 0,6.03519 0.932413,12.07403 4.31241,18.35683 0,0 -1.766486,1.7629 -1.981378,3.5257 l 8.337084,0 c 1.813835,0 4.523661,2.3747 4.523661,4.928 l -12.791542,0 C 71.455393,177.1063 64.84473,161.12055 63.886821,152.33911 63.336843,147.26912 63.650076,141.9733 63.650076,141.9733 l -8.63939,0.0182 c 0,-11.15253 3.631312,-23.37224 14.973243,-33.11159 0.08013,-0.0692 0.02549,-0.1639 0.02549,-0.25496 0,-0.16025 -0.156616,-0.31323 -0.338728,-0.33144 -0.229461,-0.0218 -0.484418,-0.0328 -0.721163,-0.0328 -4.046527,0 -9.473463,3.22702 -13.250464,8.35894 -5.139199,6.97489 -8.231459,17.62479 -8.231459,28.56608 0,1.23836 0.03642,2.08336 0.116551,3.84984 l 9.101955,0 0,-0.10927 c 0.101982,1.51518 0.254956,3.58761 0.254956,3.59125 l 0.0036,-0.0109 -0.01821,-0.0146 c 0,0 -0.743016,0.0947 -1.853899,0.43706 -1.114525,0.34602 -2.596916,0.92513 -4.079307,1.90125 -2.968425,1.94132 -5.933207,5.31403 -5.933207,11.4767 0,2.59694 0.524482,5.66004 1.802908,9.18934 l 3.500191,0 c 1.810193,0 5.255751,2.6479 5.255751,5.4342 l -12.063095,0 c -2.010515,-1.1036 -8.781437,-5.5289 -11.414775,-26.84331 -0.378793,-3.07405 -0.553621,-5.98056 -0.553621,-8.7268 0,-19.9704 9.200295,-31.37425 15.268265,-36.59358 6.781848,-5.84215 15.242768,-9.01454 22.403409,-9.01454 2.119783,0 4.123014,0.44071 5.936849,1.01255 0.189397,-1.96681 6.665297,-11.56411 15.250053,-12.88624 0.02914,-0.007 8.162257,3.16874 17.107591,2.93564 6.04976,-0.16026 9.56452,-1.57345 13.64019,-3.86077 -1.37677,-1.54067 -1.93039,-2.96843 -1.93039,-4.16308 0,-2.36381 2.15985,-3.87899 4.31241,-3.88263 0.90328,0 1.79198,0.27681 2.535,0.84864 0.0146,0.0109 0.0219,0.0182 0.0364,0.0255 0.39336,0.30959 0.73938,0.71024 1.01983,1.20558 0.0146,0.0255 0.0328,0.0583 0.051,0.0874 0.26952,0.50263 0.46985,1.09632 0.57547,1.79563 0.004,0.0255 0.007,0.051 0.0109,0.0765 0.0291,0.22218 0.0728,0.44072 0.0874,0.68475 5.54713,-2.66248 9.80127,-3.70052 12.76969,-3.70052 2.61513,0 4.23593,0.80494 4.86239,2.02144 l 0.0109,0.0219 -0.0255,0.007 c -3.38364,0.9397 -6.00241,1.98502 -7.04045,2.5095 0.97248,2.15985 3.02306,2.73168 5.55078,2.73168 2.79359,0 6.15902,-0.69931 9.244,-0.69931 1.05989,0 2.08336,0.0838 3.04127,0.30231 l 0.0219,0.007 -0.12019,0.0182 c -0.6374,1.83569 -1.74099,4.69121 -2.12343,5.59813 -0.36787,0.85956 -3.23066,1.90853 -6.8292,3.39456 -3.59853,1.47875 -7.79074,3.27437 -10.83201,5.22661 -9.64829,6.20638 -11.70616,15.94937 -11.70616,15.94937 -7.74704,0 -10.23469,3.55482 -13.31238,8.55926 -1.42412,2.31646 -8.74137,17.01654 -16.506625,19.59888 -3.288942,1.09632 -6.297431,3.46013 -6.297431,6.56696 0,0.10927 0.0073,0.19304 0.01093,0.30595 1.22015,-0.29867 2.622412,-0.49899 4.228639,-0.50992 7.07687,-0.0583 9.946947,3.81343 9.946947,3.81343 l 0.0146,0.007 c -4.184927,4.18858 -5.292167,8.14405 -5.292167,11.11247 0,2.20356 0.626465,3.86076 1.067176,4.64386 1.227434,2.1817 4.021031,4.3853 6.577881,4.3853 0.42614,0 1.15095,-0.1166 2.56778,-0.6192 1.41318,-0.4954 9.97973,-5.5581 12.97365,-11.24362 1.48603,-2.82273 2.0178,-6.25372 2.0178,-9.06189 0,-0.34237 -0.007,-0.67381 -0.0219,-0.99433 -0.17847,-3.84256 -0.76123,-7.72519 -1.19102,-11.54954 -0.62646,-5.57627 -1.40226,-9.67378 -1.40226,-12.60943 -0.004,-2.3711 0.50263,-3.98825 2.00688,-5.01172 1.5006,-1.01618 3.99189,-1.44233 7.94372,-1.44233 2.00323,-11.46212 7.27355,-15.86194 20.42931,-20.84817 4.78955,-1.81383 8.53013,-3.35086 10.25291,-6.93846 l 0.0983,-0.23675 c 0.46985,-1.20194 2.04693,-5.29581 2.62241,-7.35732 0.12019,-0.41522 0.17483,-0.83043 0.17483,-1.23836 0,-1.16916 -0.45893,-2.28369 -1.34399,-3.18332 -1.80291,-1.85026 -6.0279,-2.62605 -9.19301,-2.62605 -0.5172,0 -1.00526,0.0218 -1.44961,0.0619 l -0.0146,0.004 -0.007,-0.0146 c -1.71186,-4.7859 -6.31565,-6.25737 -11.12704,-6.25737 -3.76244,-0.004 -7.65235,0.89599 -10.39131,1.81384 l -0.0182,0.007 -0.007,-0.0146 c -1.06717,-2.12706 -3.52933,-3.36178 -6.58152,-3.45648 -0.11291,-0.004 -0.22946,-0.004 -0.33873,-0.004 -4.93887,0 -8.32616,3.35814 -9.15659,6.10075 -0.21853,0.73209 -0.34237,1.46053 -0.34237,2.17805 0,0.7066 0.1202,1.39862 0.36423,2.07972 l 0.0109,0.0219 -0.0219,0.004 c -2.13071,0.5864 -4.38161,0.8195 -6.61066,0.8195 -8.606609,0 -16.940051,-3.43463 -17.009254,-3.46377 -0.03278,0.007 -0.79765,0.18576 -2.046938,0.59733 -1.274783,0.41886 -3.041269,1.0781 -5.008078,2.04694 -3.940902,1.93039 -8.690381,5.29581 -11.931973,10.16913 0,0 -0.684741,-0.007 -1.02347,-0.007 -9.393333,0 -21.030285,4.11209 -28.154504,10.36582 -6.956676,6.10439 -17.657573,19.12903 -17.657573,41.79468 0,3.03399 0.189397,6.20274 0.608254,9.58273 3.252519,26.28232 14.212015,31.98612 18.141991,31.98612 l 13.913351,0 c 0.819504,0 1.639007,-0.2368 2.258188,-0.7685 0.116552,-0.1056 0.222177,-0.2149 0.331444,-0.3315 0.07285,-0.069 0.142047,-0.1384 0.207607,-0.2149 0.407931,-0.4844 0.73209,-1.038 0.983405,-1.6608 0.02549,-0.058 0.04735,-0.1202 0.07285,-0.1858 0.324159,-0.8887 0.495344,-1.883 0.495344,-2.932 0,-0.6629 -0.0692,-1.3476 -0.203965,-2.036"/>
</svg>
